<?xml version="1.0" encoding="UTF-8"?>
<svg id="Layer_2" xmlns="http://www.w3.org/2000/svg" version="1.1" viewBox="0 0 1000 1000">
  <!-- Generator: Adobe Illustrator 29.5.1, SVG Export Plug-In . SVG Version: 2.1.0 Build 141)  -->
  <defs>
    <style>
      .st0 {
        fill: #0d05eb;
      }
    </style>
  </defs>
  <path class="st0" d="M0,0v1000h1000V0H0ZM806.4,415.51c-31.18,39.55-82.95,6.45-121.84,63.65-45.5,66.94,8.87,170.38-75.74,217.66-52.79,29.5-108.43,14.47-156.11-16.73-47.29-30.94-78.5-82.55-141.73-62.88-35.9,11.17-50.35,49.5-97.69,35.62-63.94-18.74-52.58-115.07,9.82-125.11,52.16-8.38,60.48,38.97,104.12,53.1,86.66,28.06,129.44-57.8,65.15-115.56-39.45-35.45-117.09-7.77-122.96-81.31-6.16-77.27,106.41-96.13,123.29-25.21,5.45,22.88-2.18,40.98,7.91,67.14,29.19,75.74,132.18,77.93,132.87-21.46.34-47.81-30.64-55.43-44.91-90.38-32.93-80.63,86.02-125.28,114.96-47.38,22.6,60.82-39.96,75.19-45.18,124.32-2.35,22.14,4.04,59.52,20.22,75.42,34.91,34.33,95.38-2.45,110.01-43.02,14.51-40.22-4.77-92.2,46.24-109.56,60.53-20.6,113.69,48.26,71.57,101.68h0Z"/>
</svg>